<!--
Filename: favicon.svg
Revision: 1.1.0
Description: Warm cigar browser icon for HumidorHQ.
Modified Date: 2026-07-16 15:44 ET
-->

<svg xmlns="http://www.w3.org/2000/svg" viewBox="0 0 64 64" role="img" aria-labelledby="title">
  <title id="title">HumidorHQ cigar</title>
  <defs>
    <linearGradient id="wrapper" x1="0" x2="1" y1="0" y2="1">
      <stop offset="0" stop-color="#b96f36"/>
      <stop offset="0.55" stop-color="#7d3f20"/>
      <stop offset="1" stop-color="#4b2517"/>
    </linearGradient>
  </defs>
  <rect width="64" height="64" rx="14" fill="#17120f"/>
  <g transform="rotate(-24 32 32)">
    <path d="M13 26h37c4.4 0 8 3.6 8 8s-3.6 8-8 8H13c-4.4 0-8-3.6-8-8s3.6-8 8-8Z" fill="url(#wrapper)" stroke="#e1a15e" stroke-width="2"/>
    <path d="M18 26h10v16H18z" fill="#d49a52"/>
    <path d="M20.5 29h5v10h-5z" fill="#f1c27d"/>
    <path d="M49 27.5c2.8 1.1 4.5 3.4 4.5 6.5S51.8 39.4 49 40.5" fill="none" stroke="#3b1d13" stroke-width="2"/>
    <path d="M8 28.5v11" stroke="#d8c9b5" stroke-width="3"/>
  </g>
  <path d="M47 18c4-3 1-6 5-9M52 22c5-2 3-6 7-8" fill="none" stroke="#d8c9b5" stroke-linecap="round" stroke-width="2" opacity=".75"/>
</svg>
